<svg width="512" height="512" viewBox="0 0 512 512" fill="none" xmlns="http://www.w3.org/2000/svg">
<g clip-path="url(#clip0_9_52)">
<path d="M512 0H0V512H512V0Z" fill="#0F2923"/>
<path d="M126.247 176.492L79.6203 223.117C61.4599 241.278 61.4599 270.722 79.6203 288.883L191.123 400.385M126.247 176.492L223.117 79.6203C241.278 61.4599 270.722 61.4599 288.883 79.6203L335.509 126.247M126.247 176.492L205.755 256M191.123 400.385L223.117 432.38C241.278 450.54 270.722 450.54 288.883 432.38L335.509 385.754M191.123 400.385L270.632 320.877M335.509 126.247L432.38 223.117C450.54 241.278 450.54 270.722 432.38 288.883L335.509 385.754M335.509 126.247L205.755 256M205.755 256L270.632 320.877M335.509 385.754L270.632 320.877" stroke="#8AF135" stroke-width="24"/>
</g>
<defs>
<clipPath id="clip0_9_52">
<rect width="512" height="512" fill="white"/>
</clipPath>
</defs>
</svg>
