<svg width="329" height="72" viewBox="0 0 329 72" fill="none" xmlns="http://www.w3.org/2000/svg">
<path d="M13.6781 22.3219L5.65686 30.3431C2.53267 33.4673 2.53267 38.5327 5.65686 41.6569L24.839 60.839M13.6781 22.3219L30.3431 5.65686C33.4673 2.53267 38.5327 2.53267 41.6569 5.65686L49.6781 13.6781M13.6781 22.3219L27.3562 36M24.839 60.839L30.3431 66.3431C33.4673 69.4673 38.5327 69.4673 41.6569 66.3431L49.6781 58.3219M24.839 60.839L38.5171 47.1609M49.6781 13.6781L66.3431 30.3431C69.4673 33.4673 69.4673 38.5327 66.3431 41.6569L49.6781 58.3219M49.6781 13.6781L27.3562 36M27.3562 36L38.5171 47.1609M49.6781 58.3219L38.5171 47.1609" stroke="#8AF135" stroke-width="5"/>
<path d="M95.2826 24.1451V52.0871C95.7041 52.1215 96.2595 52.1517 96.9481 52.1775C97.6452 52.1947 98.5882 52.2033 99.7759 52.2033C104.665 52.2033 108.315 50.9595 110.725 48.4717C113.127 45.9926 114.328 42.5192 114.328 38.0516C114.328 33.5151 113.153 30.0331 110.803 27.6055C108.461 25.178 104.824 23.9643 99.8919 23.9643C97.74 23.9643 96.2038 24.0245 95.2826 24.1451ZM121.946 38.0516C121.946 41.5206 121.408 44.5335 120.332 47.0901C119.256 49.6553 117.728 51.7945 115.749 53.5073C113.76 55.2118 111.371 56.4815 108.582 57.3165C105.793 58.1429 102.707 58.5564 99.3239 58.5564C97.7055 58.5564 95.8764 58.4875 93.8365 58.3497C91.7961 58.2119 89.8509 57.9322 88 57.5101V18.6574C89.8509 18.2355 91.8133 17.9644 93.8882 17.8439C95.9712 17.732 97.8221 17.676 99.4405 17.676C102.789 17.676 105.849 18.072 108.621 18.8639C111.384 19.6473 113.76 20.8783 115.749 22.5569C117.728 24.2268 119.256 26.3444 120.332 28.9097C121.408 31.4663 121.946 34.5136 121.946 38.0516ZM136.614 27.8896V58.0913H129.629V27.8896H136.614ZM137.363 19.0576C137.363 20.3661 136.942 21.4076 136.098 22.1824C135.254 22.9485 134.252 23.3316 133.089 23.3316C131.902 23.3316 130.881 22.9485 130.03 22.1824C129.186 21.4076 128.764 20.3661 128.764 19.0576C128.764 17.7148 129.186 16.656 130.03 15.8812C130.881 15.1151 131.902 14.732 133.089 14.732C134.252 14.732 135.254 15.1151 136.098 15.8812C136.942 16.656 137.363 17.7148 137.363 19.0576ZM159.25 58.0913H153.245C151.317 54.1229 149.346 49.5693 147.332 44.4302C145.309 39.2997 143.471 33.7862 141.818 27.8896H149.268C149.69 29.5854 150.181 31.406 150.74 33.3515C151.292 35.2969 151.885 37.2424 152.522 39.1878C153.159 41.1247 153.814 43.0098 154.485 44.8434C155.157 46.6683 155.785 48.3124 156.37 49.7759C156.947 48.3124 157.562 46.6683 158.217 44.8434C158.871 43.0098 159.512 41.1247 160.141 39.1878C160.778 37.2424 161.385 35.2969 161.961 33.3515C162.538 31.406 163.042 29.5854 163.472 27.8896H170.677C169.024 33.7862 167.186 39.2997 165.164 44.4302C163.149 49.5693 161.178 54.1229 159.25 58.0913ZM183.447 53.0685C185.289 53.0685 186.636 52.8491 187.489 52.41C188.332 51.9623 188.754 51.2005 188.754 50.1245C188.754 49.1259 188.302 48.2996 187.399 47.6453C186.495 46.9911 185.001 46.2766 182.918 45.5019C181.653 45.0457 180.49 44.555 179.431 44.0299C178.373 43.5134 177.46 42.9065 176.694 42.2093C175.92 41.5206 175.313 40.6856 174.874 39.7043C174.426 38.723 174.202 37.5178 174.202 36.0889C174.202 33.317 175.222 31.1349 177.262 29.5424C179.303 27.9413 182.074 27.1407 185.578 27.1407C187.351 27.1407 189.047 27.3043 190.665 27.6314C192.275 27.9585 193.484 28.277 194.293 28.5869L193.028 34.2424C192.262 33.8981 191.281 33.5796 190.084 33.2869C188.888 33.0028 187.502 32.8608 185.927 32.8608C184.506 32.8608 183.353 33.1018 182.466 33.5839C181.579 34.066 181.136 34.8062 181.136 35.8048C181.136 36.3041 181.222 36.7474 181.394 37.1348C181.567 37.5221 181.863 37.8794 182.285 38.2065C182.707 38.5336 183.266 38.8607 183.964 39.1878C184.652 39.5149 185.5 39.8506 186.507 40.195C188.16 40.8062 189.564 41.413 190.717 42.0156C191.871 42.6095 192.822 43.281 193.57 44.0299C194.328 44.7788 194.879 45.6353 195.223 46.5994C195.568 47.5636 195.74 48.717 195.74 50.0599C195.74 52.9525 194.673 55.1388 192.537 56.6193C190.403 58.0999 187.351 58.8401 183.382 58.8401C180.732 58.8401 178.596 58.6208 176.978 58.182C175.36 57.734 174.224 57.3768 173.57 57.1098L174.783 51.2737C175.825 51.7041 177.064 52.1087 178.502 52.4874C179.948 52.875 181.596 53.0685 183.447 53.0685ZM209.892 58.0913H202.609V18.0763H227.904V24.2612H209.892V34.4749H225.877V40.6598H209.892V58.0913ZM245.568 52.9008L244.587 58.6724C242.512 58.6294 240.79 58.3968 239.422 57.9753C238.053 57.5531 236.964 56.9467 236.155 56.1547C235.346 55.3714 234.778 54.3899 234.451 53.2103C234.124 52.0398 233.96 50.7012 233.96 49.1948V14.435L240.946 13.2859V47.8778C240.946 48.7213 241.014 49.4315 241.152 50.0083C241.29 50.585 241.531 51.0757 241.875 51.4802C242.219 51.8848 242.693 52.1947 243.296 52.41C243.889 52.6165 244.647 52.7802 245.568 52.9008ZM278.533 42.9582C278.533 45.3513 278.189 47.5291 277.5 49.4917C276.803 51.4544 275.822 53.1288 274.556 54.5146C273.282 55.9003 271.75 56.9766 269.959 57.7427C268.177 58.5174 266.206 58.905 264.045 58.905C261.893 58.905 259.931 58.5174 258.158 57.7427C256.384 56.9766 254.865 55.9003 253.599 54.5146C252.326 53.1288 251.331 51.4544 250.617 49.4917C249.911 47.5291 249.558 45.3513 249.558 42.9582C249.558 40.5737 249.911 38.4088 250.617 36.4634C251.331 34.5265 252.334 32.8651 253.625 31.4792C254.916 30.0933 256.445 29.0216 258.209 28.2641C259.982 27.5151 261.928 27.1407 264.045 27.1407C266.163 27.1407 268.117 27.5151 269.908 28.2641C271.698 29.0216 273.226 30.0933 274.492 31.4792C275.765 32.8651 276.76 34.5265 277.474 36.4634C278.18 38.4088 278.533 40.5737 278.533 42.9582ZM271.38 42.9582C271.38 39.9626 270.734 37.5867 269.443 35.8307C268.151 34.0832 266.352 33.2095 264.045 33.2095C261.738 33.2095 259.94 34.0832 258.648 35.8307C257.357 37.5867 256.712 39.9626 256.712 42.9582C256.712 46.0055 257.357 48.4114 258.648 50.1761C259.94 51.9494 261.738 52.8359 264.045 52.8359C266.352 52.8359 268.151 51.9494 269.443 50.1761C270.734 48.4114 271.38 46.0055 271.38 42.9582ZM303.131 39.0974C302.253 42.4804 301.301 45.7816 300.277 49.0011C299.261 52.2119 298.25 55.2422 297.243 58.0913H291.536C290.761 56.3178 289.952 54.2952 289.108 52.0226C288.256 49.7586 287.408 47.3355 286.564 44.753C285.721 42.1706 284.873 39.459 284.021 36.6183C283.177 33.769 282.351 30.8594 281.542 27.8896H288.928C289.28 29.5079 289.685 31.2511 290.141 33.1191C290.606 34.987 291.088 36.8937 291.587 38.8392C292.087 40.7846 292.607 42.6784 293.15 44.5206C293.683 46.3713 294.221 48.0671 294.764 49.608C295.34 47.8347 295.909 46.0054 296.468 44.1203C297.027 42.2351 297.557 40.3499 298.057 38.4647C298.556 36.5795 299.025 34.7417 299.464 32.9512C299.912 31.1607 300.307 29.4735 300.652 27.8896H306.023C306.368 29.4735 306.751 31.1607 307.172 32.9512C307.603 34.7417 308.054 36.5795 308.528 38.4647C309.01 40.3499 309.531 42.2351 310.09 44.1203C310.65 46.0054 311.218 47.8347 311.795 49.608C312.294 48.0671 312.815 46.3713 313.357 44.5206C313.891 42.6784 314.42 40.7846 314.945 38.8392C315.462 36.8937 315.953 34.987 316.417 33.1191C316.882 31.2511 317.287 29.5079 317.631 27.8896H324.849C324.04 30.8594 323.209 33.769 322.357 36.6183C321.514 39.459 320.67 42.1706 319.826 44.753C318.974 47.3355 318.126 49.7586 317.283 52.0226C316.439 54.2952 315.613 56.3178 314.804 58.0913H309.135C308.137 55.2422 307.108 52.2119 306.049 49.0011C304.99 45.7816 304.018 42.4804 303.131 39.0974Z" fill="white"/>
</svg>
